<?xml version="1.0" encoding="UTF-8" standalone="no"?>
<!DOCTYPE svg PUBLIC "-//W3C//DTD SVG 1.1//EN"
 "http://www.w3.org/Graphics/SVG/1.1/DTD/svg11.dtd">
<!-- Generated by graphviz version 2.40.1 (20161225.0304)
 -->
<!-- Title: dependencies Pages: 1 -->
<svg width="637pt" height="284pt"
 viewBox="0.00 0.00 637.00 284.00" xmlns="http://www.w3.org/2000/svg" xmlns:xlink="http://www.w3.org/1999/xlink">
<g id="graph0" class="graph" transform="scale(1 1) rotate(0) translate(4 280)">
<title>dependencies</title>
<polygon fill="#ffffff" stroke="transparent" points="-4,4 -4,-280 633,-280 633,4 -4,4"/>
<text text-anchor="start" x="293.5091" y="-42.4" font-family="sans-serif" font-weight="bold" font-size="14.00" fill="#000000">Legend</text>
<polygon fill="#ffffb3" stroke="transparent" points="80.5,-10 80.5,-30 100.5,-30 100.5,-10 80.5,-10"/>
<text text-anchor="start" x="104.129" y="-15.4" font-family="sans-serif" font-size="14.00" fill="#000000"> &#160;Declarations</text>
<polygon fill="#8dd3c7" stroke="transparent" points="193.5,-10 193.5,-30 213.5,-30 213.5,-10 193.5,-10"/>
<text text-anchor="start" x="217.2251" y="-15.4" font-family="sans-serif" font-size="14.00" fill="#000000"> &#160;Module</text>
<polygon fill="#80b1d3" stroke="transparent" points="279.5,-10 279.5,-30 299.5,-30 299.5,-10 279.5,-10"/>
<text text-anchor="start" x="303.2812" y="-15.4" font-family="sans-serif" font-size="14.00" fill="#000000"> &#160;Bootstrap</text>
<polygon fill="#fdb462" stroke="transparent" points="376.5,-10 376.5,-30 396.5,-30 396.5,-10 376.5,-10"/>
<text text-anchor="start" x="400.1732" y="-15.4" font-family="sans-serif" font-size="14.00" fill="#000000"> &#160;Providers</text>
<polygon fill="#fb8072" stroke="transparent" points="472.5,-10 472.5,-30 492.5,-30 492.5,-10 472.5,-10"/>
<text text-anchor="start" x="496.2258" y="-15.4" font-family="sans-serif" font-size="14.00" fill="#000000"> &#160;Exports</text>
<g id="clust1" class="cluster">
<title>cluster_AppModule</title>
<polygon fill="none" stroke="#000000" stroke-dasharray="1,5" points="8,-70 8,-268 621,-268 621,-70 8,-70"/>
</g>
<g id="clust2" class="cluster">
<title>cluster_AppModule_declarations</title>
<polygon fill="none" stroke="#000000" points="491,-78 491,-130 613,-130 613,-78 491,-78"/>
</g>
<g id="clust4" class="cluster">
<title>cluster_AppModule_imports</title>
<polygon fill="none" stroke="#000000" points="16,-78 16,-130 483,-130 483,-78 16,-78"/>
</g>
<g id="clust6" class="cluster">
<title>cluster_AppModule_bootstrap</title>
<polygon fill="none" stroke="#000000" points="281,-208 281,-260 405,-260 405,-208 281,-208"/>
</g>
<!-- AppComponent -->
<g id="node1" class="node">
<title>AppComponent</title>
<polygon fill="#ffffb3" stroke="#000000" points="604.9399,-122 499.0601,-122 499.0601,-86 604.9399,-86 604.9399,-122"/>
<text text-anchor="middle" x="552" y="-99.8" font-family="Times,serif" font-size="14.00" fill="#000000">AppComponent</text>
</g>
<!-- AppModule -->
<g id="node2" class="node">
<title>AppModule</title>
<polygon fill="#8dd3c7" stroke="#000000" points="384.6571,-187 381.6571,-191 360.6571,-191 357.6571,-187 301.3429,-187 301.3429,-151 384.6571,-151 384.6571,-187"/>
<text text-anchor="middle" x="343" y="-164.8" font-family="Times,serif" font-size="14.00" fill="#000000">AppModule</text>
</g>
<!-- AppComponent&#45;&gt;AppModule -->
<g id="edge1" class="edge">
<title>AppComponent&#45;&gt;AppModule</title>
<path fill="none" stroke="#000000" d="M552,-122.1061C552,-141.3391 552,-169 552,-169 552,-169 394.792,-169 394.792,-169"/>
<polygon fill="#000000" stroke="#000000" points="394.792,-165.5001 384.792,-169 394.7919,-172.5001 394.792,-165.5001"/>
</g>
<!-- AppComponent  -->
<g id="node6" class="node">
<title>AppComponent </title>
<polygon fill="#80b1d3" stroke="#000000" points="397.439,-252 288.561,-252 288.561,-216 397.439,-216 397.439,-252"/>
<text text-anchor="middle" x="343" y="-229.8" font-family="Times,serif" font-size="14.00" fill="#000000">AppComponent </text>
</g>
<!-- AppModule&#45;&gt;AppComponent  -->
<g id="edge5" class="edge">
<title>AppModule&#45;&gt;AppComponent </title>
<path fill="none" stroke="#000000" stroke-dasharray="1,5" d="M343,-187.1061C343,-187.1061 343,-205.991 343,-205.991"/>
<polygon fill="#000000" stroke="#000000" points="339.5001,-205.9909 343,-215.991 346.5001,-205.991 339.5001,-205.9909"/>
</g>
<!-- AppRoutingModule -->
<g id="node3" class="node">
<title>AppRoutingModule</title>
<polygon fill="#8dd3c7" stroke="#000000" points="475.2744,-122 472.2744,-126 451.2744,-126 448.2744,-122 346.7256,-122 346.7256,-86 475.2744,-86 475.2744,-122"/>
<text text-anchor="middle" x="411" y="-99.8" font-family="Times,serif" font-size="14.00" fill="#000000">AppRoutingModule</text>
</g>
<!-- AppRoutingModule&#45;&gt;AppModule -->
<g id="edge2" class="edge">
<title>AppRoutingModule&#45;&gt;AppModule</title>
<path fill="none" stroke="#000000" d="M365.7206,-122.1061C365.7206,-122.1061 365.7206,-140.991 365.7206,-140.991"/>
<polygon fill="#000000" stroke="#000000" points="362.2206,-140.9909 365.7206,-150.991 369.2206,-140.991 362.2206,-140.9909"/>
</g>
<!-- MaterialModule -->
<g id="node4" class="node">
<title>MaterialModule</title>
<polygon fill="#8dd3c7" stroke="#000000" points="328.4706,-122 325.4706,-126 304.4706,-126 301.4706,-122 221.5294,-122 221.5294,-86 328.4706,-86 328.4706,-122"/>
<text text-anchor="middle" x="275" y="-99.8" font-family="Times,serif" font-size="14.00" fill="#000000">MaterialModule</text>
</g>
<!-- MaterialModule&#45;&gt;AppModule -->
<g id="edge3" class="edge">
<title>MaterialModule&#45;&gt;AppModule</title>
<path fill="none" stroke="#000000" d="M314.8286,-122.1061C314.8286,-122.1061 314.8286,-140.991 314.8286,-140.991"/>
<polygon fill="#000000" stroke="#000000" points="311.3286,-140.9909 314.8286,-150.991 318.3286,-140.991 311.3286,-140.9909"/>
</g>
<!-- RecapitulatioResumeModule -->
<g id="node5" class="node">
<title>RecapitulatioResumeModule</title>
<polygon fill="#8dd3c7" stroke="#000000" points="203.799,-122 200.799,-126 179.799,-126 176.799,-122 24.201,-122 24.201,-86 203.799,-86 203.799,-122"/>
<text text-anchor="middle" x="114" y="-99.8" font-family="Times,serif" font-size="14.00" fill="#000000">RecapitulatioResumeModule</text>
</g>
<!-- RecapitulatioResumeModule&#45;&gt;AppModule -->
<g id="edge4" class="edge">
<title>RecapitulatioResumeModule&#45;&gt;AppModule</title>
<path fill="none" stroke="#000000" d="M114,-122.1061C114,-141.3391 114,-169 114,-169 114,-169 291.2641,-169 291.2641,-169"/>
<polygon fill="#000000" stroke="#000000" points="291.2642,-172.5001 301.2641,-169 291.2641,-165.5001 291.2642,-172.5001"/>
</g>
</g>
</svg>
